<?xml version="1.0" encoding="UTF-8"?>
<svg id="Layer_1" data-name="Layer 1" xmlns="http://www.w3.org/2000/svg" xmlns:xlink="http://www.w3.org/1999/xlink" viewBox="0 0 450 236">
  <defs>
    <style>
      .cls-1 {
        clip-path: url(#clippath);
      }

      .cls-2 {
        fill: none;
      }

      .cls-2, .cls-3 {
        stroke-width: 0px;
      }

      .cls-3 {
        fill: #7df8fe;
      }
    </style>
    <clipPath id="clippath">
      <rect class="cls-2" x="8.59" y="29.01" width="433" height="177.87"/>
    </clipPath>
  </defs>
  <g class="cls-1">
    <g>
      <path class="cls-2" d="M225.09,29.09c70.94,0,141.89.03,212.83-.09,3.07,0,3.68.6,3.67,3.66-.12,56.85-.12,113.7,0,170.56,0,3.06-.6,3.66-3.67,3.66-141.89-.1-283.77-.1-425.66,0-3.07,0-3.68-.6-3.67-3.66.12-56.85.12-113.7,0-170.56,0-3.06.6-3.66,3.67-3.66,70.94.11,141.89.09,212.83.09Z"/>
      <path class="cls-3" d="M225.08,107.68c24.48,0,48.97.04,73.45-.01,14.25-.03,28.04,3.24,41.95,5.66,10.4,1.81,20.88,3.63,30.87,6.98,18.56,6.23,37.69,10.91,55.34,19.72,3.54,1.77,6.3,4.4,9.03,7.09,2.33,2.3,1.45,4.21-1.16,5.69-5.81,3.29-12.31,4.43-18.72,5.63-14.78,2.76-29.72,4.31-44.7,5.57-8.75.74-17.63.73-26.25,1.99-23.36,3.42-46.84,2.41-70.27,3.47-27.6,1.24-55.2.6-82.8.53-22.35-.05-44.73-.65-67.05-1.88-17.58-.97-35.07-3.49-52.63-4.89-16.35-1.3-32.53-3.48-48.46-7.39-2.75-.68-5.46-1.55-7.82-3.2-2.06-1.45-2.67-3.29-.84-5.26,2.31-2.48,4.55-4.95,7.75-6.56,14.58-7.34,30.24-11.68,45.6-16.94,19.92-6.83,40.49-10.36,61.11-13.87,7.62-1.3,15.24-2.45,23.05-2.4,24.18.17,48.37.06,72.55.06Z"/>
      <path class="cls-3" d="M225.23,101.35c-25.06,0-50.13-.09-75.19.09-4.23.03-4.48-1.46-2.94-4.53,6.7-13.41,14.98-25.53,27.42-34.48,14.96-10.76,31.17-17.21,49.97-17.42,19.96-.21,37.18,6.41,52.82,18.2,11.57,8.72,19.62,20.18,26.11,32.85,2.5,4.87,2.09,5.28-3.45,5.28-24.91,0-49.83,0-74.74,0Z"/>
      <path class="cls-3" d="M263.44,174.07c-21.11,24.7-54.02,25.53-76,0h76Z"/>
    </g>
  </g>
</svg>